<!DOCTYPE svg PUBLIC "-//W3C//DTD SVG 20010904//EN" "http://www.w3.org/TR/2001/REC-SVG-20010904/DTD/svg10.dtd">
<svg version="1.0" xmlns="http://www.w3.org/2000/svg" width="256px" height="256px" viewBox="0 0 2560 2560" preserveAspectRatio="xMidYMid meet">
<g id="layer101" fill="#3f3939" stroke="none">
 <path d="M433 2373 c-103 -213 -142 -305 -218 -516 -109 -301 -108 -327 15 -448 163 -162 690 -476 1247 -742 236 -113 509 -232 578 -252 160 -47 292 8 420 176 25 31 45 61 45 66 0 4 9 19 20 33 17 22 20 41 20 170 0 90 -4 140 -9 131 -5 -8 -24 -32 -43 -54 -181 -214 -285 -276 -473 -285 -115 -5 -206 15 -353 75 -116 48 -356 168 -371 187 -8 9 -17 16 -22 16 -16 0 -233 127 -370 216 -196 129 -288 223 -363 373 -38 75 -55 233 -33 306 9 28 23 77 31 110 11 41 24 66 41 78 14 10 25 23 25 29 0 6 26 49 58 95 31 47 67 101 79 121 12 20 40 55 62 77 71 71 111 115 111 125 0 5 13 16 30 25 16 8 37 29 45 45 l16 30 -249 0 -249 0 -90 -187z"/>
 <path d="M1716 2250 c-38 -5 -55 -13 -77 -38 -31 -35 -35 -55 -18 -99 25 -68 137 -143 288 -193 125 -42 174 -32 195 37 7 23 -16 115 -42 171 -20 41 -52 44 -49 5 2 -26 -1 -28 -38 -31 -49 -3 -138 46 -170 94 -40 62 -37 61 -89 54z"/>
 <path d="M1175 2207 c-41 -13 -82 -54 -96 -94 -14 -43 1 -90 42 -129 26 -25 38 -29 84 -29 50 0 58 3 92 38 34 33 38 43 38 87 0 43 -4 54 -35 85 -42 42 -83 56 -125 42z"/>
 <path d="M2105 1666 c-65 -29 -103 -97 -85 -152 14 -41 68 -90 109 -99 69 -15 146 54 146 130 0 88 -94 155 -170 121z"/>
 </g>
<g id="layer102" fill="#4e4949" stroke="none">
 <path d="M963 2537 c-12 -12 -30 -29 -40 -38 -10 -9 -35 -36 -56 -60 -21 -24 -56 -62 -77 -84 -21 -22 -50 -58 -64 -80 -14 -22 -38 -58 -53 -80 -16 -22 -41 -62 -57 -90 -15 -27 -39 -60 -53 -71 -17 -15 -32 -48 -50 -110 -43 -157 -44 -161 -33 -231 6 -36 9 -67 7 -70 -8 -8 18 -79 58 -153 41 -77 167 -220 235 -267 237 -162 311 -209 425 -269 46 -25 87 -49 89 -53 5 -8 252 -132 358 -179 122 -55 265 -91 360 -92 87 0 226 43 305 96 61 40 189 167 199 196 3 10 9 18 13 18 29 0 31 65 31 845 l0 795 -787 0 -788 0 -22 -23z m942 -314 c53 -27 97 -65 112 -97 8 -17 21 -44 30 -60 21 -40 28 -103 13 -121 -7 -8 -28 -15 -49 -15 -84 1 -308 108 -343 165 -22 37 -23 78 -2 99 17 18 79 22 89 6 3 -5 15 -10 26 -10 16 0 19 4 14 21 -13 41 40 47 110 12z m-655 -58 c36 -19 50 -43 50 -90 0 -50 -36 -85 -89 -85 -53 0 -69 7 -86 41 -27 51 -12 109 36 135 32 18 54 17 89 -1z m961 -554 c79 -79 -22 -207 -115 -146 -53 35 -57 106 -9 151 37 34 86 32 124 -5z"/>
 <path d="M1870 2111 c0 -12 39 -25 48 -16 7 7 -17 25 -35 25 -7 0 -13 -4 -13 -9z"/>
 <path d="M496 2508 c-8 -13 -29 -54 -46 -93 -18 -38 -47 -101 -65 -140 -45 -95 -115 -267 -115 -282 0 -29 18 -9 39 45 38 93 78 178 157 333 41 80 74 149 74 153 0 15 -31 4 -44 -16z"/>
 <path d="M242 1933 c-6 -16 -22 -58 -36 -95 -14 -36 -26 -76 -26 -88 0 -11 -6 -31 -14 -43 -18 -26 -25 -96 -11 -97 5 -1 13 12 17 27 13 55 27 99 59 183 36 98 45 140 31 140 -5 0 -14 -12 -20 -27z"/>
 <path d="M146 1553 c-12 -13 -5 -39 19 -68 23 -28 24 -29 25 -8 0 12 -4 25 -10 28 -5 3 -10 15 -10 25 0 20 -13 33 -24 23z"/>
 <path d="M196 1452 c-8 -13 22 -52 40 -52 9 0 14 7 12 16 -4 21 -44 48 -52 36z"/>
 <path d="M280 1366 c0 -14 24 -29 33 -19 3 3 3 11 0 19 -7 18 -33 18 -33 0z"/>
 <path d="M325 1330 c3 -5 13 -10 21 -10 8 0 12 5 9 10 -3 6 -13 10 -21 10 -8 0 -12 -4 -9 -10z"/>
 <path d="M369 1296 c17 -20 135 -96 149 -96 26 0 9 19 -58 64 -69 45 -116 62 -91 32z"/>
 <path d="M550 1180 c0 -14 48 -35 58 -26 8 9 -26 36 -45 36 -7 0 -13 -5 -13 -10z"/>
 <path d="M630 1131 c0 -16 435 -259 675 -379 234 -116 668 -312 692 -312 36 0 0 21 -134 79 -137 59 -439 201 -543 256 -25 13 -99 50 -165 83 -66 33 -207 110 -313 171 -106 61 -198 111 -203 111 -5 0 -9 -4 -9 -9z"/>
 <path d="M2527 705 c-16 -20 -27 -43 -25 -52 2 -12 12 -4 31 26 36 54 31 73 -6 26z"/>
 <path d="M2457 611 c-27 -32 -28 -55 -3 -45 17 7 39 49 34 64 -2 8 -15 0 -31 -19z"/>
 <path d="M2389 531 c-34 -34 -31 -61 4 -38 11 7 27 23 34 34 23 35 -4 38 -38 4z"/>
 <path d="M2293 459 c-17 -11 -50 -23 -73 -27 -50 -8 -54 -28 -5 -25 35 2 128 44 140 63 10 17 -28 10 -62 -11z"/>
 <path d="M2052 428 c6 -16 73 -32 95 -24 25 10 4 23 -50 30 -36 4 -48 3 -45 -6z"/>
 </g>
<g id="layer103" fill="#b7686a" stroke="none">
 <path d="M1777 2262 c-29 -32 -21 -62 32 -113 30 -29 70 -55 105 -68 68 -25 84 -26 114 -5 38 26 29 62 -31 119 -78 75 -184 107 -220 67z"/>
 </g>

</svg>